<?xml version="1.0" encoding="UTF-8"?>
<svg width="60px" height="51px" viewBox="0 0 60 51" version="1.1" xmlns="http://www.w3.org/2000/svg" xmlns:xlink="http://www.w3.org/1999/xlink">
    <!-- Generator: Sketch 52.6 (67491) - http://www.bohemiancoding.com/sketch -->
    <title>computer-screen</title>
    <desc>Created with Sketch.</desc>
    <g id="Page-1" stroke="none" stroke-width="1" fill="none" fill-rule="evenodd">
        <g id="1a" transform="translate(-1344.000000, -3289.000000)" fill="#1F1C1D" fill-rule="nonzero">
            <g id="computer-screen" transform="translate(1344.000000, 3289.000000)">
                <path d="M56.741672,0.0893573786 L56.741672,0 L56.447947,0 L3.52254326,0 L3.22881825,0 L3.22881825,0.0893573786 C1.49725246,0.210563923 0.205391821,1.61352469 0,3.31630691 L0,3.61602853 L0,39.1317427 C0,39.8204434 0.175980105,40.400917 0.469705115,40.9237824 C1.14548832,42.1355484 2.14303571,42.7477712 3.5226413,42.7477712 L22.8375117,42.7477712 L22.8375117,47.7093521 L19.1684001,47.7093521 C18.2584996,47.7093521 17.5539909,48.4300019 17.5539909,49.354726 C17.5539909,50.2794501 18.2584996,51 19.1684001,51 L40.8022863,51 C41.7121867,51 42.4462052,50.2793502 42.4462052,49.354726 C42.4462052,48.4299021 41.7122848,47.7093521 40.8022863,47.7093521 L37.1331746,47.7093521 L37.1331746,42.7477712 L56.447947,42.7477712 C57.8281408,42.7477712 58.8345117,42.1355484 59.5008832,40.9237824 C59.8033337,40.3753578 60,39.7885943 60,39.1317427 L60,3.61612838 L60,3.31640675 C59.7945101,1.61352469 58.4149046,0.210563923 56.741672,0.0893573786 Z M56.741672,3.61612838 L56.741672,39.1318425 C56.741672,39.3423066 56.653927,39.4315641 56.447947,39.4315641 L3.52254326,39.4315641 C3.31715144,39.4315641 3.22881825,39.3423066 3.22881825,39.1318425 L3.22881825,3.61612838 L3.22881825,3.31640675 L56.741672,3.31640675 L56.741574,3.61612838 L56.741672,3.61612838 Z" id="Shape"></path>
            </g>
        </g>
    </g>
</svg>